<svg xmlns="http://www.w3.org/2000/svg" viewBox="0 0 800 450" fill="none">
  <rect width="800" height="450" fill="#0f0f14"/>
  <rect x="40" y="40" width="720" height="370" rx="16" fill="#1a1a24" stroke="#6366f1" stroke-opacity="0.3"/>
  <rect x="60" y="60" width="160" height="330" rx="8" fill="#12121a"/>
  <rect x="80" y="90" width="120" height="12" rx="4" fill="#6366f1" fill-opacity="0.6"/>
  <rect x="80" y="120" width="100" height="8" rx="3" fill="#3f3f50"/>
  <rect x="80" y="140" width="110" height="8" rx="3" fill="#3f3f50"/>
  <rect x="80" y="160" width="90" height="8" rx="3" fill="#3f3f50"/>
  <rect x="240" y="60" width="500" height="40" rx="8" fill="#12121a"/>
  <rect x="260" y="75" width="200" height="10" rx="3" fill="#6366f1" fill-opacity="0.4"/>
  <rect x="240" y="120" width="240" height="130" rx="8" fill="#6366f1" fill-opacity="0.15" stroke="#6366f1" stroke-opacity="0.3"/>
  <rect x="500" y="120" width="240" height="130" rx="8" fill="#8b5cf6" fill-opacity="0.15" stroke="#8b5cf6" stroke-opacity="0.3"/>
  <rect x="240" y="270" width="500" height="120" rx="8" fill="#12121a"/>
  <rect x="260" y="290" width="460" height="8" rx="3" fill="#3f3f50"/>
  <rect x="260" y="310" width="400" height="8" rx="3" fill="#3f3f50"/>
  <rect x="260" y="330" width="350" height="8" rx="3" fill="#3f3f50"/>
  <text x="400" y="420" text-anchor="middle" fill="#6366f1" font-family="system-ui,sans-serif" font-size="20" font-weight="600">DevBoard</text>
</svg>
