<svg xmlns="http://www.w3.org/2000/svg" viewBox="0 0 800 450" fill="none">
  <rect width="800" height="450" fill="#0a0a0f"/>
  <rect x="200" y="60" width="400" height="330" rx="12" fill="#12121a" stroke="#6366f1" stroke-opacity="0.2"/>
  <rect x="200" y="60" width="400" height="50" rx="12" fill="#1a1a24"/>
  <circle cx="230" cy="85" r="6" fill="#ef4444"/>
  <circle cx="250" cy="85" r="6" fill="#fbbf24"/>
  <circle cx="270" cy="85" r="6" fill="#22c55e"/>
  <rect x="240" y="140" width="200" height="16" rx="4" fill="#6366f1"/>
  <rect x="240" y="170" width="140" height="10" rx="3" fill="#6366f1" fill-opacity="0.5"/>
  <rect x="240" y="200" width="320" height="10" rx="3" fill="#3f3f50"/>
  <rect x="240" y="220" width="280" height="10" rx="3" fill="#3f3f50"/>
  <rect x="240" y="260" width="100" height="36" rx="18" fill="#6366f1"/>
  <rect x="360" y="260" width="100" height="36" rx="18" fill="#1a1a24" stroke="#6366f1" stroke-opacity="0.4"/>
  <rect x="240" y="320" width="80" height="30" rx="6" fill="#8b5cf6" fill-opacity="0.3"/>
  <rect x="340" y="320" width="80" height="30" rx="6" fill="#6366f1" fill-opacity="0.3"/>
  <rect x="440" y="320" width="80" height="30" rx="6" fill="#22c55e" fill-opacity="0.3"/>
  <text x="400" y="420" text-anchor="middle" fill="#6366f1" font-family="system-ui,sans-serif" font-size="20" font-weight="600">Portfolio</text>
</svg>
